<svg width="2768" height="1027" xmlns="http://www.w3.org/2000/svg" xmlns:xlink="http://www.w3.org/1999/xlink" xml:space="preserve" overflow="hidden"><g transform="translate(-215 -664)"><g><path d="M614.76 758.301 1008.81 758.301 1008.81 849.171 614.76 849.171Z" fill="#FCE5CD" fill-rule="evenodd" fill-opacity="1"/><path d="M1008.81 758.301 1402.87 758.301 1402.87 849.171 1008.81 849.171Z" fill="#FCE5CD" fill-rule="evenodd" fill-opacity="1"/><path d="M1402.87 758.301 1796.92 758.301 1796.92 849.171 1402.87 849.171Z" fill="#CFE2F3" fill-rule="evenodd" fill-opacity="1"/><path d="M1796.92 758.301 2190.97 758.301 2190.97 849.171 1796.92 849.171Z" fill="#FCE5CD" fill-rule="evenodd" fill-opacity="1"/><path d="M2190.97 758.301 2585.02 758.301 2585.02 849.171 2190.97 849.171Z" fill="#FCE5CD" fill-rule="evenodd" fill-opacity="1"/><path d="M2585.02 758.301 2979.08 758.301 2979.08 849.171 2585.02 849.171Z" fill="#CFE2F3" fill-rule="evenodd" fill-opacity="1"/><path d="M614.76 849.171 1008.81 849.171 1008.81 940.042 614.76 940.042Z" fill="#FFE599" fill-rule="evenodd" fill-opacity="1"/><path d="M1008.81 849.171 1402.87 849.171 1402.87 940.042 1008.81 940.042Z" fill="#B6D7A8" fill-rule="evenodd" fill-opacity="1"/><path d="M1402.87 849.171 1796.92 849.171 1796.92 940.042 1402.87 940.042Z" fill="#6AA84F" fill-rule="evenodd" fill-opacity="1"/><path d="M1796.92 849.171 2190.97 849.171 2190.97 940.042 1796.92 940.042Z" fill="#FFE599" fill-rule="evenodd" fill-opacity="1"/><path d="M2190.97 849.171 2585.02 849.171 2585.02 940.042 2190.97 940.042Z" fill="#B6D7A8" fill-rule="evenodd" fill-opacity="1"/><path d="M2585.02 849.171 2979.08 849.171 2979.08 940.042 2585.02 940.042Z" fill="#6AA84F" fill-rule="evenodd" fill-opacity="1"/><path d="M614.76 940.042 1008.81 940.042 1008.81 1030.91 614.76 1030.91Z" fill="#D9D9D9" fill-rule="evenodd" fill-opacity="1"/><path d="M1008.81 940.042 1402.87 940.042 1402.87 1030.91 1008.81 1030.91Z" fill="#EAD1DC" fill-rule="evenodd" fill-opacity="1"/><path d="M1402.87 940.042 1796.92 940.042 1796.92 1030.91 1402.87 1030.91Z" fill="#B4A7D6" fill-rule="evenodd" fill-opacity="1"/><path d="M1796.92 940.042 2190.97 940.042 2190.97 1030.91 1796.92 1030.91Z" fill="#B4A7D6" fill-rule="evenodd" fill-opacity="1"/><path d="M2190.97 940.042 2585.02 940.042 2585.02 1030.91 2190.97 1030.91Z" fill="#B4A7D6" fill-rule="evenodd" fill-opacity="1"/><path d="M2585.02 940.042 2979.08 940.042 2979.08 1030.91 2585.02 1030.91Z" fill="#D9D9D9" fill-rule="evenodd" fill-opacity="1"/><path d="M614.76 1030.91 1008.81 1030.91 1008.81 1121.78 614.76 1121.78Z" fill="#D9D9D9" fill-rule="evenodd" fill-opacity="1"/><path d="M1008.81 1030.91 1402.87 1030.91 1402.87 1121.78 1008.81 1121.78Z" fill="#EAD1DC" fill-rule="evenodd" fill-opacity="1"/><path d="M1402.87 1030.91 1796.92 1030.91 1796.92 1121.78 1402.87 1121.78Z" fill="#B4A7D6" fill-rule="evenodd" fill-opacity="1"/><path d="M1796.92 1030.91 2190.97 1030.91 2190.97 1121.78 1796.92 1121.78Z" fill="#B4A7D6" fill-rule="evenodd" fill-opacity="1"/><path d="M2190.97 1030.91 2585.02 1030.91 2585.02 1121.78 2190.97 1121.78Z" fill="#B4A7D6" fill-rule="evenodd" fill-opacity="1"/><path d="M2585.02 1030.91 2979.08 1030.91 2979.08 1121.78 2585.02 1121.78Z" fill="#D9D9D9" fill-rule="evenodd" fill-opacity="1"/><path d="M614.76 1121.78 1008.81 1121.78 1008.81 1212.65 614.76 1212.65Z" fill="#D9D9D9" fill-rule="evenodd" fill-opacity="1"/><path d="M1008.81 1121.78 1402.87 1121.78 1402.87 1212.65 1008.81 1212.65Z" fill="#EAD1DC" fill-rule="evenodd" fill-opacity="1"/><path d="M1402.87 1121.78 1796.92 1121.78 1796.92 1212.65 1402.87 1212.65Z" fill="#B4A7D6" fill-rule="evenodd" fill-opacity="1"/><path d="M1796.92 1121.78 2190.97 1121.78 2190.97 1212.65 1796.92 1212.65Z" fill="#B4A7D6" fill-rule="evenodd" fill-opacity="1"/><path d="M2190.97 1121.78 2585.02 1121.78 2585.02 1212.65 2190.97 1212.65Z" fill="#B4A7D6" fill-rule="evenodd" fill-opacity="1"/><path d="M2585.02 1121.78 2979.08 1121.78 2979.08 1212.65 2585.02 1212.65Z" fill="#D9D9D9" fill-rule="evenodd" fill-opacity="1"/><path d="M614.76 1212.65 1008.81 1212.65 1008.81 1303.52 614.76 1303.52Z" fill="#D9D9D9" fill-rule="evenodd" fill-opacity="1"/><path d="M1008.81 1212.65 1402.87 1212.65 1402.87 1303.52 1008.81 1303.52Z" fill="#EAD1DC" fill-rule="evenodd" fill-opacity="1"/><path d="M1402.87 1212.65 1796.92 1212.65 1796.92 1303.52 1402.87 1303.52Z" fill="#B4A7D6" fill-rule="evenodd" fill-opacity="1"/><path d="M1796.92 1212.65 2979.08 1212.65 2979.08 1303.52 1796.92 1303.52Z" fill="#B6D7A8" fill-rule="evenodd" fill-opacity="1"/><path d="M614.76 1303.52 1008.81 1303.52 1008.81 1394.39 614.76 1394.39Z" fill="#D9D9D9" fill-rule="evenodd" fill-opacity="1"/><path d="M1008.81 1303.52 1402.87 1303.52 1402.87 1394.39 1008.81 1394.39Z" fill="#EAD1DC" fill-rule="evenodd" fill-opacity="1"/><path d="M1402.87 1303.52 1796.92 1303.52 1796.92 1394.39 1402.87 1394.39Z" fill="#B4A7D6" fill-rule="evenodd" fill-opacity="1"/><path d="M1796.92 1303.52 2190.97 1303.52 2190.97 1394.39 1796.92 1394.39Z" fill="#B4A7D6" fill-rule="evenodd" fill-opacity="1"/><path d="M2190.97 1303.52 2585.02 1303.52 2585.02 1394.39 2190.97 1394.39Z" fill="#B4A7D6" fill-rule="evenodd" fill-opacity="1"/><path d="M2585.02 1303.52 2979.08 1303.52 2979.08 1394.39 2585.02 1394.39Z" fill="#D9D9D9" fill-rule="evenodd" fill-opacity="1"/><path d="M614.76 1394.39 1008.81 1394.39 1008.81 1485.26 614.76 1485.26Z" fill="#D9D9D9" fill-rule="evenodd" fill-opacity="1"/><path d="M1008.81 1394.39 1402.87 1394.39 1402.87 1485.26 1008.81 1485.26Z" fill="#EAD1DC" fill-rule="evenodd" fill-opacity="1"/><path d="M1402.87 1394.39 1796.92 1394.39 1796.92 1485.26 1402.87 1485.26Z" fill="#B4A7D6" fill-rule="evenodd" fill-opacity="1"/><path d="M1796.92 1394.39 2190.97 1394.39 2190.97 1485.26 1796.92 1485.26Z" fill="#B4A7D6" fill-rule="evenodd" fill-opacity="1"/><path d="M2190.97 1394.39 2585.02 1394.39 2585.02 1485.26 2190.97 1485.26Z" fill="#B4A7D6" fill-rule="evenodd" fill-opacity="1"/><path d="M2585.02 1394.39 2979.08 1394.39 2979.08 1485.26 2585.02 1485.26Z" fill="#D9D9D9" fill-rule="evenodd" fill-opacity="1"/><path d="M614.76 1485.26 1796.92 1485.26 1796.92 1576.14 614.76 1576.14Z" fill="#9FC5E8" fill-rule="evenodd" fill-opacity="1"/><path d="M1796.92 1485.26 2585.02 1485.26 2585.02 1576.14 1796.92 1576.14Z" fill="#9FC5E8" fill-rule="evenodd" fill-opacity="1"/><path d="M2585.02 1485.26 2979.08 1485.26 2979.08 1576.14 2585.02 1576.14Z" fill="#9FC5E8" fill-rule="evenodd" fill-opacity="1"/><path d="M614.76 1576.14 1402.87 1576.14 1402.87 1667.01 614.76 1667.01Z" fill="#9FC5E8" fill-rule="evenodd" fill-opacity="1"/><path d="M1402.87 1576.14 1796.92 1576.14 1796.92 1667.01 1402.87 1667.01Z" fill="#9FC5E8" fill-rule="evenodd" fill-opacity="1"/><path d="M1796.92 1576.14 2979.08 1576.14 2979.08 1667.01 1796.92 1667.01Z" fill="#9FC5E8" fill-rule="evenodd" fill-opacity="1"/><path d="M614.76 666.284 614.76 1668.15" stroke="#000000" stroke-width="2.29167" stroke-linecap="butt" stroke-linejoin="round" stroke-miterlimit="10" stroke-opacity="1" fill="none" fill-rule="evenodd"/><path d="M1008.81 757.155 1008.81 1486.41" stroke="#000000" stroke-width="2.29167" stroke-linecap="butt" stroke-linejoin="round" stroke-miterlimit="10" stroke-opacity="1" fill="none" fill-rule="evenodd"/><path d="M1402.87 757.155 1402.87 1486.41" stroke="#000000" stroke-width="2.29167" stroke-linecap="butt" stroke-linejoin="round" stroke-miterlimit="10" stroke-opacity="1" fill="none" fill-rule="evenodd"/><path d="M1402.87 1574.99 1402.87 1668.15" stroke="#000000" stroke-width="2.29167" stroke-linecap="butt" stroke-linejoin="round" stroke-miterlimit="10" stroke-opacity="1" fill="none" fill-rule="evenodd"/><path d="M1796.92 666.284 1796.92 1668.15" stroke="#000000" stroke-width="2.29167" stroke-linecap="butt" stroke-linejoin="round" stroke-miterlimit="10" stroke-opacity="1" fill="none" fill-rule="evenodd"/><path d="M2190.97 757.155 2190.97 1213.8" stroke="#000000" stroke-width="2.29167" stroke-linecap="butt" stroke-linejoin="round" stroke-miterlimit="10" stroke-opacity="1" fill="none" fill-rule="evenodd"/><path d="M2190.97 1302.38 2190.97 1486.41" stroke="#000000" stroke-width="2.29167" stroke-linecap="butt" stroke-linejoin="round" stroke-miterlimit="10" stroke-opacity="1" fill="none" fill-rule="evenodd"/><path d="M2585.02 757.155 2585.02 1213.8" stroke="#000000" stroke-width="2.29167" stroke-linecap="butt" stroke-linejoin="round" stroke-miterlimit="10" stroke-opacity="1" fill="none" fill-rule="evenodd"/><path d="M2585.02 1302.38 2585.02 1577.28" stroke="#000000" stroke-width="2.29167" stroke-linecap="butt" stroke-linejoin="round" stroke-miterlimit="10" stroke-opacity="1" fill="none" fill-rule="evenodd"/><path d="M219.562 758.301 2980.22 758.301" stroke="#000000" stroke-width="2.29167" stroke-linecap="butt" stroke-linejoin="round" stroke-miterlimit="10" stroke-opacity="1" fill="none" fill-rule="evenodd"/><path d="M219.562 849.171 2980.22 849.171" stroke="#000000" stroke-width="2.29167" stroke-linecap="butt" stroke-linejoin="round" stroke-miterlimit="10" stroke-opacity="1" fill="none" fill-rule="evenodd"/><path d="M219.562 940.042 2980.22 940.042" stroke="#000000" stroke-width="2.29167" stroke-linecap="butt" stroke-linejoin="round" stroke-miterlimit="10" stroke-opacity="1" fill="none" fill-rule="evenodd"/><path d="M219.562 1030.91 2980.22 1030.91" stroke="#000000" stroke-width="2.29167" stroke-linecap="butt" stroke-linejoin="round" stroke-miterlimit="10" stroke-opacity="1" fill="none" fill-rule="evenodd"/><path d="M219.562 1121.78 2980.22 1121.78" stroke="#000000" stroke-width="2.29167" stroke-linecap="butt" stroke-linejoin="round" stroke-miterlimit="10" stroke-opacity="1" fill="none" fill-rule="evenodd"/><path d="M219.562 1212.65 2980.22 1212.65" stroke="#000000" stroke-width="2.29167" stroke-linecap="butt" stroke-linejoin="round" stroke-miterlimit="10" stroke-opacity="1" fill="none" fill-rule="evenodd"/><path d="M219.562 1303.52 2980.22 1303.52" stroke="#000000" stroke-width="2.29167" stroke-linecap="butt" stroke-linejoin="round" stroke-miterlimit="10" stroke-opacity="1" fill="none" fill-rule="evenodd"/><path d="M219.562 1394.39 2980.22 1394.39" stroke="#000000" stroke-width="2.29167" stroke-linecap="butt" stroke-linejoin="round" stroke-miterlimit="10" stroke-opacity="1" fill="none" fill-rule="evenodd"/><path d="M219.562 1485.26 2980.22 1485.26" stroke="#000000" stroke-width="2.29167" stroke-linecap="butt" stroke-linejoin="round" stroke-miterlimit="10" stroke-opacity="1" fill="none" fill-rule="evenodd"/><path d="M219.562 1576.14 2980.22 1576.14" stroke="#000000" stroke-width="2.29167" stroke-linecap="butt" stroke-linejoin="round" stroke-miterlimit="10" stroke-opacity="1" fill="none" fill-rule="evenodd"/><path d="M220.707 666.284 220.707 1668.15" stroke="#000000" stroke-width="2.29167" stroke-linecap="butt" stroke-linejoin="round" stroke-miterlimit="10" stroke-opacity="1" fill="none" fill-rule="evenodd"/><path d="M2979.08 666.284 2979.08 1668.15" stroke="#000000" stroke-width="2.29167" stroke-linecap="butt" stroke-linejoin="round" stroke-miterlimit="10" stroke-opacity="1" fill="none" fill-rule="evenodd"/><path d="M219.562 667.43 2980.22 667.43" stroke="#000000" stroke-width="2.29167" stroke-linecap="butt" stroke-linejoin="round" stroke-miterlimit="10" stroke-opacity="1" fill="none" fill-rule="evenodd"/><path d="M219.562 1667.01 2980.22 1667.01" stroke="#000000" stroke-width="2.29167" stroke-linecap="butt" stroke-linejoin="round" stroke-miterlimit="10" stroke-opacity="1" fill="none" fill-rule="evenodd"/><text fill="#000000" fill-opacity="1" font-family="Arial,Arial_MSFontService,sans-serif" font-style="normal" font-variant="normal" font-weight="400" font-stretch="normal" font-size="48" text-anchor="start" direction="ltr" writing-mode="lr-tb" unicode-bidi="normal" text-decoration="none" transform="matrix(1 0 0 1 2246.77 741)">spmpcfg.S</text><text fill="#000000" fill-opacity="1" font-family="Arial,Arial_MSFontService,sans-serif" font-style="normal" font-variant="normal" font-weight="400" font-stretch="normal" font-size="48" text-anchor="start" direction="ltr" writing-mode="lr-tb" unicode-bidi="normal" text-decoration="none" transform="matrix(1 0 0 1 2474.22 741)">=1</text><text fill="#000000" fill-opacity="1" font-family="Arial,Arial_MSFontService,sans-serif" font-style="normal" font-variant="normal" font-weight="400" font-stretch="normal" font-size="48" text-anchor="start" direction="ltr" writing-mode="lr-tb" unicode-bidi="normal" text-decoration="none" transform="matrix(1 0 0 1 1064.61 741)">spmpcfg.S=0</text><g><text fill="#000000" fill-opacity="1" font-family="Arial,Arial_MSFontService,sans-serif" font-style="normal" font-variant="normal" font-weight="400" font-stretch="normal" font-size="48" text-anchor="start" direction="ltr" writing-mode="lr-tb" unicode-bidi="normal" text-decoration="none" transform="matrix(1 0 0 1 2613.33 832)">U mode Access</text></g><text fill="#000000" fill-opacity="1" font-family="Arial,Arial_MSFontService,sans-serif" font-style="normal" font-variant="normal" font-weight="400" font-stretch="normal" font-size="48" text-anchor="start" direction="ltr" writing-mode="lr-tb" unicode-bidi="normal" text-decoration="none" transform="matrix(1 0 0 1 2220.7 832)">S mode Access</text><text fill="#000000" fill-opacity="1" font-family="Arial,Arial_MSFontService,sans-serif" font-style="normal" font-variant="normal" font-weight="400" font-stretch="normal" font-size="48" text-anchor="start" direction="ltr" writing-mode="lr-tb" unicode-bidi="normal" text-decoration="none" transform="matrix(1 0 0 1 1826.65 832)">S mode Access</text><g><text fill="#000000" fill-opacity="1" font-family="Arial,Arial_MSFontService,sans-serif" font-style="normal" font-variant="normal" font-weight="400" font-stretch="normal" font-size="48" text-anchor="start" direction="ltr" writing-mode="lr-tb" unicode-bidi="normal" text-decoration="none" transform="matrix(1 0 0 1 1431.17 832)">U mode Access</text></g><text fill="#000000" fill-opacity="1" font-family="Arial,Arial_MSFontService,sans-serif" font-style="normal" font-variant="normal" font-weight="400" font-stretch="normal" font-size="48" text-anchor="start" direction="ltr" writing-mode="lr-tb" unicode-bidi="normal" text-decoration="none" transform="matrix(1 0 0 1 1038.55 832)">S mode Access</text><text fill="#000000" fill-opacity="1" font-family="Arial,Arial_MSFontService,sans-serif" font-style="normal" font-variant="normal" font-weight="400" font-stretch="normal" font-size="48" text-anchor="start" direction="ltr" writing-mode="lr-tb" unicode-bidi="normal" text-decoration="none" transform="matrix(1 0 0 1 644.494 832)">S mode Access</text><text fill="#000000" fill-opacity="1" font-family="Arial,Arial_MSFontService,sans-serif" font-style="normal" font-variant="normal" font-weight="400" font-stretch="normal" font-size="48" text-anchor="start" direction="ltr" writing-mode="lr-tb" unicode-bidi="normal" text-decoration="none" transform="matrix(1 0 0 1 326.64 832)">spmpcfg</text><text fill="#000000" fill-opacity="1" font-family="Arial,Arial_MSFontService,sans-serif" font-style="normal" font-variant="normal" font-weight="400" font-stretch="normal" font-size="48" text-anchor="start" direction="ltr" writing-mode="lr-tb" unicode-bidi="normal" text-decoration="none" transform="matrix(1 0 0 1 2619.63 912)">sstatus.SUM</text><text fill="#000000" fill-opacity="1" font-family="Arial,Arial_MSFontService,sans-serif" font-style="normal" font-variant="normal" font-weight="400" font-stretch="normal" font-size="48" text-anchor="start" direction="ltr" writing-mode="lr-tb" unicode-bidi="normal" text-decoration="none" transform="matrix(1 0 0 1 2892.34 912)">=x</text><text fill="#000000" fill-opacity="1" font-family="Arial,Arial_MSFontService,sans-serif" font-style="normal" font-variant="normal" font-weight="400" font-stretch="normal" font-size="48" text-anchor="start" direction="ltr" writing-mode="lr-tb" unicode-bidi="normal" text-decoration="none" transform="matrix(1 0 0 1 2224.14 912)">sstatus.SUM</text><text fill="#000000" fill-opacity="1" font-family="Arial,Arial_MSFontService,sans-serif" font-style="normal" font-variant="normal" font-weight="400" font-stretch="normal" font-size="48" text-anchor="start" direction="ltr" writing-mode="lr-tb" unicode-bidi="normal" text-decoration="none" transform="matrix(1 0 0 1 2496.85 912)">=1</text><text fill="#000000" fill-opacity="1" font-family="Arial,Arial_MSFontService,sans-serif" font-style="normal" font-variant="normal" font-weight="400" font-stretch="normal" font-size="48" text-anchor="start" direction="ltr" writing-mode="lr-tb" unicode-bidi="normal" text-decoration="none" transform="matrix(1 0 0 1 1830.09 912)">sstatus.SUM</text><text fill="#000000" fill-opacity="1" font-family="Arial,Arial_MSFontService,sans-serif" font-style="normal" font-variant="normal" font-weight="400" font-stretch="normal" font-size="48" text-anchor="start" direction="ltr" writing-mode="lr-tb" unicode-bidi="normal" text-decoration="none" transform="matrix(1 0 0 1 2102.8 912)">=0</text><text fill="#000000" fill-opacity="1" font-family="Arial,Arial_MSFontService,sans-serif" font-style="normal" font-variant="normal" font-weight="400" font-stretch="normal" font-size="48" text-anchor="start" direction="ltr" writing-mode="lr-tb" unicode-bidi="normal" text-decoration="none" transform="matrix(1 0 0 1 1437.47 912)">sstatus.SUM</text><text fill="#000000" fill-opacity="1" font-family="Arial,Arial_MSFontService,sans-serif" font-style="normal" font-variant="normal" font-weight="400" font-stretch="normal" font-size="48" text-anchor="start" direction="ltr" writing-mode="lr-tb" unicode-bidi="normal" text-decoration="none" transform="matrix(1 0 0 1 1710.18 912)">=x</text><text fill="#000000" fill-opacity="1" font-family="Arial,Arial_MSFontService,sans-serif" font-style="normal" font-variant="normal" font-weight="400" font-stretch="normal" font-size="48" text-anchor="start" direction="ltr" writing-mode="lr-tb" unicode-bidi="normal" text-decoration="none" transform="matrix(1 0 0 1 1041.98 912)">sstatus.SUM</text><text fill="#000000" fill-opacity="1" font-family="Arial,Arial_MSFontService,sans-serif" font-style="normal" font-variant="normal" font-weight="400" font-stretch="normal" font-size="48" text-anchor="start" direction="ltr" writing-mode="lr-tb" unicode-bidi="normal" text-decoration="none" transform="matrix(1 0 0 1 1314.69 912)">=1</text><text fill="#000000" fill-opacity="1" font-family="Arial,Arial_MSFontService,sans-serif" font-style="normal" font-variant="normal" font-weight="400" font-stretch="normal" font-size="48" text-anchor="start" direction="ltr" writing-mode="lr-tb" unicode-bidi="normal" text-decoration="none" transform="matrix(1 0 0 1 647.932 912)">sstatus.SUM</text><text fill="#000000" fill-opacity="1" font-family="Arial,Arial_MSFontService,sans-serif" font-style="normal" font-variant="normal" font-weight="400" font-stretch="normal" font-size="48" text-anchor="start" direction="ltr" writing-mode="lr-tb" unicode-bidi="normal" text-decoration="none" transform="matrix(1 0 0 1 920.64 912)">=0</text><text fill="#000000" fill-opacity="1" font-family="Arial,Arial_MSFontService,sans-serif" font-style="normal" font-variant="normal" font-weight="400" font-stretch="normal" font-size="48" text-anchor="start" direction="ltr" writing-mode="lr-tb" unicode-bidi="normal" text-decoration="none" transform="matrix(1 0 0 1 361.588 912)">RWX</text><text fill="#000000" fill-opacity="1" font-family="Arial,Arial_MSFontService,sans-serif" font-style="normal" font-variant="normal" font-weight="400" font-stretch="normal" font-size="48" text-anchor="start" direction="ltr" writing-mode="lr-tb" unicode-bidi="normal" text-decoration="none" transform="matrix(1 0 0 1 2725.62 1013)">Deny</text><text fill="#000000" fill-opacity="1" font-family="Arial,Arial_MSFontService,sans-serif" font-style="normal" font-variant="normal" font-weight="400" font-stretch="normal" font-size="48" text-anchor="start" direction="ltr" writing-mode="lr-tb" unicode-bidi="normal" text-decoration="none" transform="matrix(1 0 0 1 2304.92 1013)">Enforce</text><text fill="#000000" fill-opacity="1" font-family="Arial,Arial_MSFontService,sans-serif" font-style="normal" font-variant="normal" font-weight="400" font-stretch="normal" font-size="48" text-anchor="start" direction="ltr" writing-mode="lr-tb" unicode-bidi="normal" text-decoration="none" transform="matrix(1 0 0 1 1910.87 1013)">Enforce</text><text fill="#000000" fill-opacity="1" font-family="Arial,Arial_MSFontService,sans-serif" font-style="normal" font-variant="normal" font-weight="400" font-stretch="normal" font-size="48" text-anchor="start" direction="ltr" writing-mode="lr-tb" unicode-bidi="normal" text-decoration="none" transform="matrix(1 0 0 1 1516.82 1013)">Enforce</text><text fill="#000000" fill-opacity="1" font-family="Arial,Arial_MSFontService,sans-serif" font-style="normal" font-variant="normal" font-weight="400" font-stretch="normal" font-size="48" text-anchor="start" direction="ltr" writing-mode="lr-tb" unicode-bidi="normal" text-decoration="none" transform="matrix(1 0 0 1 1075.79 1013)">EnforceNoX</text><text fill="#000000" fill-opacity="1" font-family="Arial,Arial_MSFontService,sans-serif" font-style="normal" font-variant="normal" font-weight="400" font-stretch="normal" font-size="48" text-anchor="start" direction="ltr" writing-mode="lr-tb" unicode-bidi="normal" text-decoration="none" transform="matrix(1 0 0 1 755.354 1013)">Deny</text><text fill="#000000" fill-opacity="1" font-family="Arial,Arial_MSFontService,sans-serif" font-style="normal" font-variant="normal" font-weight="400" font-stretch="normal" font-size="48" text-anchor="start" direction="ltr" writing-mode="lr-tb" unicode-bidi="normal" text-decoration="none" transform="matrix(1 0 0 1 371.041 1013)">R </text><text fill="#000000" fill-opacity="1" font-family="Arial,Arial_MSFontService,sans-serif" font-style="normal" font-variant="normal" font-weight="400" font-stretch="normal" font-size="48" text-anchor="start" direction="ltr" writing-mode="lr-tb" unicode-bidi="normal" text-decoration="none" transform="matrix(1 0 0 1 419.166 1013)">-</text><text fill="#000000" fill-opacity="1" font-family="Arial,Arial_MSFontService,sans-serif" font-style="normal" font-variant="normal" font-weight="400" font-stretch="normal" font-size="48" text-anchor="start" direction="ltr" writing-mode="lr-tb" unicode-bidi="normal" text-decoration="none" transform="matrix(1 0 0 1 448.385 1013)">-</text><text fill="#000000" fill-opacity="1" font-family="Arial,Arial_MSFontService,sans-serif" font-style="normal" font-variant="normal" font-weight="400" font-stretch="normal" font-size="48" text-anchor="start" direction="ltr" writing-mode="lr-tb" unicode-bidi="normal" text-decoration="none" transform="matrix(1 0 0 1 2725.62 1104)">Deny</text><text fill="#000000" fill-opacity="1" font-family="Arial,Arial_MSFontService,sans-serif" font-style="normal" font-variant="normal" font-weight="400" font-stretch="normal" font-size="48" text-anchor="start" direction="ltr" writing-mode="lr-tb" unicode-bidi="normal" text-decoration="none" transform="matrix(1 0 0 1 2304.92 1104)">Enforce</text><text fill="#000000" fill-opacity="1" font-family="Arial,Arial_MSFontService,sans-serif" font-style="normal" font-variant="normal" font-weight="400" font-stretch="normal" font-size="48" text-anchor="start" direction="ltr" writing-mode="lr-tb" unicode-bidi="normal" text-decoration="none" transform="matrix(1 0 0 1 1910.87 1104)">Enforce</text><text fill="#000000" fill-opacity="1" font-family="Arial,Arial_MSFontService,sans-serif" font-style="normal" font-variant="normal" font-weight="400" font-stretch="normal" font-size="48" text-anchor="start" direction="ltr" writing-mode="lr-tb" unicode-bidi="normal" text-decoration="none" transform="matrix(1 0 0 1 1516.82 1104)">Enforce</text><text fill="#000000" fill-opacity="1" font-family="Arial,Arial_MSFontService,sans-serif" font-style="normal" font-variant="normal" font-weight="400" font-stretch="normal" font-size="48" text-anchor="start" direction="ltr" writing-mode="lr-tb" unicode-bidi="normal" text-decoration="none" transform="matrix(1 0 0 1 1075.79 1104)">EnforceNoX</text><text fill="#000000" fill-opacity="1" font-family="Arial,Arial_MSFontService,sans-serif" font-style="normal" font-variant="normal" font-weight="400" font-stretch="normal" font-size="48" text-anchor="start" direction="ltr" writing-mode="lr-tb" unicode-bidi="normal" text-decoration="none" transform="matrix(1 0 0 1 755.354 1104)">Deny</text><text fill="#000000" fill-opacity="1" font-family="Arial,Arial_MSFontService,sans-serif" font-style="normal" font-variant="normal" font-weight="400" font-stretch="normal" font-size="48" text-anchor="start" direction="ltr" writing-mode="lr-tb" unicode-bidi="normal" text-decoration="none" transform="matrix(1 0 0 1 363.02 1104)">R </text><text fill="#000000" fill-opacity="1" font-family="Arial,Arial_MSFontService,sans-serif" font-style="normal" font-variant="normal" font-weight="400" font-stretch="normal" font-size="48" text-anchor="start" direction="ltr" writing-mode="lr-tb" unicode-bidi="normal" text-decoration="none" transform="matrix(1 0 0 1 411.145 1104)">-</text><text fill="#000000" fill-opacity="1" font-family="Arial,Arial_MSFontService,sans-serif" font-style="normal" font-variant="normal" font-weight="400" font-stretch="normal" font-size="48" text-anchor="start" direction="ltr" writing-mode="lr-tb" unicode-bidi="normal" text-decoration="none" transform="matrix(1 0 0 1 440.364 1104)">X</text><text fill="#000000" fill-opacity="1" font-family="Arial,Arial_MSFontService,sans-serif" font-style="normal" font-variant="normal" font-weight="400" font-stretch="normal" font-size="48" text-anchor="start" direction="ltr" writing-mode="lr-tb" unicode-bidi="normal" text-decoration="none" transform="matrix(1 0 0 1 2725.62 1195)">Deny</text><text fill="#000000" fill-opacity="1" font-family="Arial,Arial_MSFontService,sans-serif" font-style="normal" font-variant="normal" font-weight="400" font-stretch="normal" font-size="48" text-anchor="start" direction="ltr" writing-mode="lr-tb" unicode-bidi="normal" text-decoration="none" transform="matrix(1 0 0 1 2304.92 1195)">Enforce</text><text fill="#000000" fill-opacity="1" font-family="Arial,Arial_MSFontService,sans-serif" font-style="normal" font-variant="normal" font-weight="400" font-stretch="normal" font-size="48" text-anchor="start" direction="ltr" writing-mode="lr-tb" unicode-bidi="normal" text-decoration="none" transform="matrix(1 0 0 1 1910.87 1195)">Enforce</text><text fill="#000000" fill-opacity="1" font-family="Arial,Arial_MSFontService,sans-serif" font-style="normal" font-variant="normal" font-weight="400" font-stretch="normal" font-size="48" text-anchor="start" direction="ltr" writing-mode="lr-tb" unicode-bidi="normal" text-decoration="none" transform="matrix(1 0 0 1 1516.82 1195)">Enforce</text><text fill="#000000" fill-opacity="1" font-family="Arial,Arial_MSFontService,sans-serif" font-style="normal" font-variant="normal" font-weight="400" font-stretch="normal" font-size="48" text-anchor="start" direction="ltr" writing-mode="lr-tb" unicode-bidi="normal" text-decoration="none" transform="matrix(1 0 0 1 1075.79 1195)">EnforceNoX</text><text fill="#000000" fill-opacity="1" font-family="Arial,Arial_MSFontService,sans-serif" font-style="normal" font-variant="normal" font-weight="400" font-stretch="normal" font-size="48" text-anchor="start" direction="ltr" writing-mode="lr-tb" unicode-bidi="normal" text-decoration="none" transform="matrix(1 0 0 1 755.354 1195)">Deny</text><text fill="#000000" fill-opacity="1" font-family="Arial,Arial_MSFontService,sans-serif" font-style="normal" font-variant="normal" font-weight="400" font-stretch="normal" font-size="48" text-anchor="start" direction="ltr" writing-mode="lr-tb" unicode-bidi="normal" text-decoration="none" transform="matrix(1 0 0 1 372.473 1195)">-</text><text fill="#000000" fill-opacity="1" font-family="Arial,Arial_MSFontService,sans-serif" font-style="normal" font-variant="normal" font-weight="400" font-stretch="normal" font-size="48" text-anchor="start" direction="ltr" writing-mode="lr-tb" unicode-bidi="normal" text-decoration="none" transform="matrix(1 0 0 1 401.692 1195)">-</text><text fill="#000000" fill-opacity="1" font-family="Arial,Arial_MSFontService,sans-serif" font-style="normal" font-variant="normal" font-weight="400" font-stretch="normal" font-size="48" text-anchor="start" direction="ltr" writing-mode="lr-tb" unicode-bidi="normal" text-decoration="none" transform="matrix(1 0 0 1 430.911 1195)">X</text><text fill="#000000" fill-opacity="1" font-family="Arial,Arial_MSFontService,sans-serif" font-style="normal" font-variant="normal" font-weight="400" font-stretch="normal" font-size="48" text-anchor="start" direction="ltr" writing-mode="lr-tb" unicode-bidi="normal" text-decoration="none" transform="matrix(1 0 0 1 2330.13 1286)">Allow</text><text fill="#000000" fill-opacity="1" font-family="Arial,Arial_MSFontService,sans-serif" font-style="normal" font-variant="normal" font-weight="400" font-stretch="normal" font-size="48" text-anchor="start" direction="ltr" writing-mode="lr-tb" unicode-bidi="normal" text-decoration="none" transform="matrix(1 0 0 1 1516.82 1286)">Enforce</text><text fill="#000000" fill-opacity="1" font-family="Arial,Arial_MSFontService,sans-serif" font-style="normal" font-variant="normal" font-weight="400" font-stretch="normal" font-size="48" text-anchor="start" direction="ltr" writing-mode="lr-tb" unicode-bidi="normal" text-decoration="none" transform="matrix(1 0 0 1 1075.79 1286)">EnforceNoX</text><text fill="#000000" fill-opacity="1" font-family="Arial,Arial_MSFontService,sans-serif" font-style="normal" font-variant="normal" font-weight="400" font-stretch="normal" font-size="48" text-anchor="start" direction="ltr" writing-mode="lr-tb" unicode-bidi="normal" text-decoration="none" transform="matrix(1 0 0 1 755.354 1286)">Deny</text><text fill="#000000" fill-opacity="1" font-family="DengXian Light,DengXian Light_MSFontService,sans-serif" font-style="normal" font-variant="normal" font-weight="300" font-stretch="normal" font-size="48" text-anchor="start" direction="ltr" writing-mode="lr-tb" unicode-bidi="normal" text-decoration="none" transform="matrix(1 0 0 1 368.463 1284)">-</text><text fill="#000000" fill-opacity="1" font-family="DengXian Light,DengXian Light_MSFontService,sans-serif" font-style="normal" font-variant="normal" font-weight="300" font-stretch="normal" font-size="48" text-anchor="start" direction="ltr" writing-mode="lr-tb" unicode-bidi="normal" text-decoration="none" transform="matrix(1 0 0 1 405.702 1284)">-</text><text fill="#000000" fill-opacity="1" font-family="DengXian Light,DengXian Light_MSFontService,sans-serif" font-style="normal" font-variant="normal" font-weight="300" font-stretch="normal" font-size="48" text-anchor="start" direction="ltr" writing-mode="lr-tb" unicode-bidi="normal" text-decoration="none" transform="matrix(1 0 0 1 442.942 1284)">-</text><text fill="#000000" fill-opacity="1" font-family="Arial,Arial_MSFontService,sans-serif" font-style="normal" font-variant="normal" font-weight="400" font-stretch="normal" font-size="48" text-anchor="start" direction="ltr" writing-mode="lr-tb" unicode-bidi="normal" text-decoration="none" transform="matrix(1 0 0 1 2725.62 1377)">Deny</text><text fill="#000000" fill-opacity="1" font-family="Arial,Arial_MSFontService,sans-serif" font-style="normal" font-variant="normal" font-weight="400" font-stretch="normal" font-size="48" text-anchor="start" direction="ltr" writing-mode="lr-tb" unicode-bidi="normal" text-decoration="none" transform="matrix(1 0 0 1 2304.92 1377)">Enforce</text><text fill="#000000" fill-opacity="1" font-family="Arial,Arial_MSFontService,sans-serif" font-style="normal" font-variant="normal" font-weight="400" font-stretch="normal" font-size="48" text-anchor="start" direction="ltr" writing-mode="lr-tb" unicode-bidi="normal" text-decoration="none" transform="matrix(1 0 0 1 1910.87 1377)">Enforce</text><text fill="#000000" fill-opacity="1" font-family="Arial,Arial_MSFontService,sans-serif" font-style="normal" font-variant="normal" font-weight="400" font-stretch="normal" font-size="48" text-anchor="start" direction="ltr" writing-mode="lr-tb" unicode-bidi="normal" text-decoration="none" transform="matrix(1 0 0 1 1516.82 1377)">Enforce</text><text fill="#000000" fill-opacity="1" font-family="Arial,Arial_MSFontService,sans-serif" font-style="normal" font-variant="normal" font-weight="400" font-stretch="normal" font-size="48" text-anchor="start" direction="ltr" writing-mode="lr-tb" unicode-bidi="normal" text-decoration="none" transform="matrix(1 0 0 1 1075.79 1377)">EnforceNoX</text><text fill="#000000" fill-opacity="1" font-family="Arial,Arial_MSFontService,sans-serif" font-style="normal" font-variant="normal" font-weight="400" font-stretch="normal" font-size="48" text-anchor="start" direction="ltr" writing-mode="lr-tb" unicode-bidi="normal" text-decoration="none" transform="matrix(1 0 0 1 755.354 1377)">Deny</text><text fill="#000000" fill-opacity="1" font-family="Arial,Arial_MSFontService,sans-serif" font-style="normal" font-variant="normal" font-weight="400" font-stretch="normal" font-size="48" text-anchor="start" direction="ltr" writing-mode="lr-tb" unicode-bidi="normal" text-decoration="none" transform="matrix(1 0 0 1 363.02 1377)">RW </text><text fill="#000000" fill-opacity="1" font-family="Arial,Arial_MSFontService,sans-serif" font-style="normal" font-variant="normal" font-weight="400" font-stretch="normal" font-size="48" text-anchor="start" direction="ltr" writing-mode="lr-tb" unicode-bidi="normal" text-decoration="none" transform="matrix(1 0 0 1 456.405 1377)">-</text><text fill="#000000" fill-opacity="1" font-family="Arial,Arial_MSFontService,sans-serif" font-style="normal" font-variant="normal" font-weight="400" font-stretch="normal" font-size="48" text-anchor="start" direction="ltr" writing-mode="lr-tb" unicode-bidi="normal" text-decoration="none" transform="matrix(1 0 0 1 2725.62 1468)">Deny</text><text fill="#000000" fill-opacity="1" font-family="Arial,Arial_MSFontService,sans-serif" font-style="normal" font-variant="normal" font-weight="400" font-stretch="normal" font-size="48" text-anchor="start" direction="ltr" writing-mode="lr-tb" unicode-bidi="normal" text-decoration="none" transform="matrix(1 0 0 1 2304.92 1468)">Enforce</text><text fill="#000000" fill-opacity="1" font-family="Arial,Arial_MSFontService,sans-serif" font-style="normal" font-variant="normal" font-weight="400" font-stretch="normal" font-size="48" text-anchor="start" direction="ltr" writing-mode="lr-tb" unicode-bidi="normal" text-decoration="none" transform="matrix(1 0 0 1 1910.87 1468)">Enforce</text><text fill="#000000" fill-opacity="1" font-family="Arial,Arial_MSFontService,sans-serif" font-style="normal" font-variant="normal" font-weight="400" font-stretch="normal" font-size="48" text-anchor="start" direction="ltr" writing-mode="lr-tb" unicode-bidi="normal" text-decoration="none" transform="matrix(1 0 0 1 1516.82 1468)">Enforce</text><text fill="#000000" fill-opacity="1" font-family="Arial,Arial_MSFontService,sans-serif" font-style="normal" font-variant="normal" font-weight="400" font-stretch="normal" font-size="48" text-anchor="start" direction="ltr" writing-mode="lr-tb" unicode-bidi="normal" text-decoration="none" transform="matrix(1 0 0 1 1075.79 1468)">EnforceNoX</text><text fill="#000000" fill-opacity="1" font-family="Arial,Arial_MSFontService,sans-serif" font-style="normal" font-variant="normal" font-weight="400" font-stretch="normal" font-size="48" text-anchor="start" direction="ltr" writing-mode="lr-tb" unicode-bidi="normal" text-decoration="none" transform="matrix(1 0 0 1 755.354 1468)">Deny</text><text fill="#000000" fill-opacity="1" font-family="Arial,Arial_MSFontService,sans-serif" font-style="normal" font-variant="normal" font-weight="400" font-stretch="normal" font-size="48" text-anchor="start" direction="ltr" writing-mode="lr-tb" unicode-bidi="normal" text-decoration="none" transform="matrix(1 0 0 1 361.588 1468)">RWX</text><text fill="#000000" fill-opacity="1" font-family="Arial,Arial_MSFontService,sans-serif" font-style="normal" font-variant="normal" font-weight="400" font-stretch="normal" font-size="48" text-anchor="start" direction="ltr" writing-mode="lr-tb" unicode-bidi="normal" text-decoration="none" transform="matrix(1 0 0 1 2708.43 1559)">SHR X</text><text fill="#000000" fill-opacity="1" font-family="Arial,Arial_MSFontService,sans-serif" font-style="normal" font-variant="normal" font-weight="400" font-stretch="normal" font-size="48" text-anchor="start" direction="ltr" writing-mode="lr-tb" unicode-bidi="normal" text-decoration="none" transform="matrix(1 0 0 1 2099.88 1559)">SHR RX</text><text fill="#000000" fill-opacity="1" font-family="Arial,Arial_MSFontService,sans-serif" font-style="normal" font-variant="normal" font-weight="400" font-stretch="normal" font-size="48" text-anchor="start" direction="ltr" writing-mode="lr-tb" unicode-bidi="normal" text-decoration="none" transform="matrix(1 0 0 1 1108.16 1559)">SHR RW</text><text fill="#000000" fill-opacity="1" font-family="Arial,Arial_MSFontService,sans-serif" font-style="normal" font-variant="normal" font-weight="400" font-stretch="normal" font-size="48" text-anchor="start" direction="ltr" writing-mode="lr-tb" unicode-bidi="normal" text-decoration="none" transform="matrix(1 0 0 1 364.452 1559)">-</text><text fill="#000000" fill-opacity="1" font-family="Arial,Arial_MSFontService,sans-serif" font-style="normal" font-variant="normal" font-weight="400" font-stretch="normal" font-size="48" text-anchor="start" direction="ltr" writing-mode="lr-tb" unicode-bidi="normal" text-decoration="none" transform="matrix(1 0 0 1 393.671 1559)">WX</text><text fill="#000000" fill-opacity="1" font-family="Arial,Arial_MSFontService,sans-serif" font-style="normal" font-variant="normal" font-weight="400" font-stretch="normal" font-size="48" text-anchor="start" direction="ltr" writing-mode="lr-tb" unicode-bidi="normal" text-decoration="none" transform="matrix(1 0 0 1 2314.38 1649)">SHR X</text><text fill="#000000" fill-opacity="1" font-family="Arial,Arial_MSFontService,sans-serif" font-style="normal" font-variant="normal" font-weight="400" font-stretch="normal" font-size="48" text-anchor="start" direction="ltr" writing-mode="lr-tb" unicode-bidi="normal" text-decoration="none" transform="matrix(1 0 0 1 1506.22 1649)">SHR RO</text><text fill="#000000" fill-opacity="1" font-family="Arial,Arial_MSFontService,sans-serif" font-style="normal" font-variant="normal" font-weight="400" font-stretch="normal" font-size="48" text-anchor="start" direction="ltr" writing-mode="lr-tb" unicode-bidi="normal" text-decoration="none" transform="matrix(1 0 0 1 911.13 1649)">SHR RW</text><text fill="#000000" fill-opacity="1" font-family="Arial,Arial_MSFontService,sans-serif" font-style="normal" font-variant="normal" font-weight="400" font-stretch="normal" font-size="48" text-anchor="start" direction="ltr" writing-mode="lr-tb" unicode-bidi="normal" text-decoration="none" transform="matrix(1 0 0 1 365.885 1649)">-</text><text fill="#000000" fill-opacity="1" font-family="Arial,Arial_MSFontService,sans-serif" font-style="normal" font-variant="normal" font-weight="400" font-stretch="normal" font-size="48" text-anchor="start" direction="ltr" writing-mode="lr-tb" unicode-bidi="normal" text-decoration="none" transform="matrix(1 0 0 1 395.103 1649)">W </text><text fill="#000000" fill-opacity="1" font-family="Arial,Arial_MSFontService,sans-serif" font-style="normal" font-variant="normal" font-weight="400" font-stretch="normal" font-size="48" text-anchor="start" direction="ltr" writing-mode="lr-tb" unicode-bidi="normal" text-decoration="none" transform="matrix(1 0 0 1 453.541 1649)">-</text></g></g></svg>